<svg width="24" height="24" viewBox="0 0 24 24" fill="none" xmlns="http://www.w3.org/2000/svg">
<path fill-rule="evenodd" clip-rule="evenodd" d="M2 11C0.896149 11 0 11.7207 0 12.6083V22.3917C0 23.2813 0.896149 24 2 24C3.10385 24 4 23.2813 4 22.3917V12.6083C4 11.7187 3.10385 11 2 11Z" fill="white"/>
<path fill-rule="evenodd" clip-rule="evenodd" d="M14.9994 0C13.8959 0 13 0.717 13 1.6V22.4C13 23.285 13.8959 24 14.9994 24C16.1029 24 17 23.285 17 22.4V1.6C17 0.717 16.1029 0 14.9994 0Z" fill="white"/>
<path fill-rule="evenodd" clip-rule="evenodd" d="M22.0006 4C20.8971 4 20 4.74687 20 5.66667V22.3333C20 23.2552 20.8971 24 22.0006 24C23.1041 24 24 23.2552 24 22.3333V5.66667C24 4.74687 23.1041 4 22.0006 4Z" fill="white"/>
<path fill-rule="evenodd" clip-rule="evenodd" d="M7 7.63636V22.3636C7 23.2687 7.89615 24 9 24C10.1039 24 11 23.2687 11 22.3636V7.63636C11 6.7333 10.1039 6 9 6C7.89615 6 7 6.7333 7 7.63636Z" fill="white"/>
</svg>
