<svg width="48" height="32" viewBox="0 0 48 32" fill="none" xmlns="http://www.w3.org/2000/svg">
<path fill-rule="evenodd" clip-rule="evenodd" d="M0 0H48V32H0V0Z" fill="#C8C8CA"/>
<mask id="mask0_0_901" style="mask-type:luminance" maskUnits="userSpaceOnUse" x="12" y="4" width="24" height="16">
<path fill-rule="evenodd" clip-rule="evenodd" d="M23.9529 4.42859H35.9058V19.0553H12V4.42859L23.9529 4.42859Z" fill="white"/>
</mask>
<g mask="url(#mask0_0_901)">
<path fill-rule="evenodd" clip-rule="evenodd" d="M31.5112 9.01002C31.1861 9.01002 30.8663 9.0503 30.555 9.12959C29.6227 6.34559 27.2565 4.42859 24.5779 4.42859C22.5878 4.42859 20.7218 5.49573 19.5191 7.26959C18.8471 6.9353 18.1207 6.7613 17.3783 6.7613C14.4128 6.7613 12 9.51873 12 12.9083C12 16.2979 14.4128 19.0553 17.3783 19.0553C17.4233 19.0553 17.4675 19.0536 17.5118 19.0506C17.5406 19.0536 17.5699 19.0553 17.5991 19.0553H21.0311C21.549 19.0553 21.9686 18.5757 21.9686 17.9839C21.9686 17.392 21.549 16.9124 21.0311 16.9124H17.7446C17.6805 16.9004 17.6141 16.8962 17.5481 16.9013L17.466 16.9073C17.4367 16.9094 17.4079 16.9124 17.3783 16.9124C15.4462 16.9124 13.8746 15.1163 13.8746 12.9083C13.8746 10.7003 15.4462 8.90416 17.3783 8.90416C18.066 8.90416 18.7331 9.13345 19.3073 9.56759C19.524 9.7313 19.7906 9.7853 20.0434 9.71587C20.2961 9.64645 20.5121 9.46045 20.6404 9.20202C21.4444 7.57945 22.953 6.57145 24.5779 6.57145C26.7296 6.57145 28.5953 8.31959 29.0141 10.7286C29.0715 11.0586 29.2612 11.3384 29.526 11.4846C29.7911 11.6312 30.0998 11.6256 30.3626 11.4722C30.7222 11.2604 31.1092 11.1529 31.5112 11.1529C32.9006 11.1529 34.0309 12.4446 34.0309 14.0324C34.0309 15.6126 32.9119 16.8996 31.5326 16.9124C31.485 16.9099 31.449 16.9103 31.4153 16.9124H27.0315C26.5136 16.9124 26.094 17.392 26.094 17.9839C26.094 18.5757 26.5136 19.0553 27.0315 19.0553H31.4741H31.512C33.9345 19.0553 35.9059 16.8019 35.9059 14.0324C35.9059 11.263 33.9345 9.01002 31.5112 9.01002Z" fill="#4A4A4A"/>
</g>
<path fill-rule="evenodd" clip-rule="evenodd" d="M25.75 23.2757L24.9408 24.2006V15.2837C24.9408 14.6914 24.5212 14.2123 24.0033 14.2123C23.4854 14.2123 23.0658 14.6914 23.0658 15.2837V24.1997L22.2573 23.2757C21.8909 22.857 21.2973 22.857 20.9313 23.2757C20.5649 23.6944 20.5649 24.3729 20.9313 24.7907L23.3403 27.5443C23.5233 27.7534 23.7633 27.858 24.0033 27.858C24.2433 27.858 24.4829 27.7534 24.6663 27.5443L27.076 24.7907C27.4424 24.3729 27.4424 23.6944 27.076 23.2757C26.7097 22.8574 26.1164 22.857 25.75 23.2757Z" fill="#4A4A4A"/>
</svg>
