<svg width="36" height="36" viewBox="0 0 36 36" fill="none" xmlns="http://www.w3.org/2000/svg">
<path fill-rule="evenodd" clip-rule="evenodd" d="M0 18C0 8.064 8.064 0 18 0C27.936 0 36 8.064 36 18C36 27.936 27.936 36 18 36C8.064 36 0 27.936 0 18ZM2.16 18C2.16 26.784 9.216 33.84 18 33.84C26.784 33.84 33.84 26.784 33.84 18C33.84 9.216 26.784 2.16 18 2.16C9.216 2.16 2.16 9.216 2.16 18Z" fill="white"/>
<path d="M15.912 25.92H19.152V18H21.312L21.6 15.264H19.152V13.896C19.152 13.176 19.224 12.816 20.232 12.816H21.6V10.08H19.44C16.848 10.08 15.912 11.376 15.912 13.608V15.264H14.256V18H15.912V25.92Z" fill="white"/>
</svg>
