<svg width="40" height="40" viewBox="0 0 40 40" fill="none" xmlns="http://www.w3.org/2000/svg">
<rect width="40" height="40" rx="4" fill="#D41217"/>
<path fill-rule="evenodd" clip-rule="evenodd" d="M17.9333 25.8667C19.6667 25.8667 21.2667 25.3333 22.5333 24.4L27.7333 29.6C28.2667 30.1333 29.0667 30.1333 29.6 29.6C30.1333 29.0667 30.1333 28.2667 29.6 27.7333L24.4 22.5333C25.3333 21.2667 25.8667 19.6667 25.8667 17.9333C25.8667 13.5333 22.3333 10 17.9333 10C13.5333 10 10 13.5333 10 17.9333C10 22.3333 13.5333 25.8667 17.9333 25.8667ZM24 17.9333C24 21.2667 21.2667 24 17.9333 24C14.6 24 11.8667 21.2667 11.8667 17.9333C11.8667 14.6 14.6 11.8667 17.9333 11.8667C21.2667 11.8667 24 14.6 24 17.9333Z" fill="white"/>
</svg>
