<svg width="36" height="36" viewBox="0 0 36 36" fill="none" xmlns="http://www.w3.org/2000/svg">
<path fill-rule="evenodd" clip-rule="evenodd" d="M12.024 9.35999C10.872 9.35999 10.08 10.152 10.08 11.16C10.08 12.168 10.8 12.96 11.952 12.96C13.104 12.96 13.896 12.168 13.896 11.16C13.896 10.152 13.176 9.35999 12.024 9.35999ZM10.08 14.472V24.912H13.464V14.472H10.08ZM19.008 16.2C19.44 15.48 20.232 14.472 22.032 14.472C24.264 14.472 25.92 15.984 25.92 19.224V25.2H22.608V19.512C22.608 18.072 22.104 17.136 20.88 17.136C19.944 17.136 19.368 17.784 19.152 18.432C19.008 18.648 19.008 19.008 19.008 19.296V25.128H15.624C15.624 25.128 15.696 15.696 15.624 14.688H19.008V16.2Z" fill="white"/>
<path fill-rule="evenodd" clip-rule="evenodd" d="M0 18C0 8.064 8.064 0 18 0C27.936 0 36 8.064 36 18C36 27.936 27.936 36 18 36C8.064 36 0 27.936 0 18ZM2.16 18C2.16 26.784 9.216 33.84 18 33.84C26.784 33.84 33.84 26.784 33.84 18C33.84 9.216 26.784 2.16 18 2.16C9.216 2.16 2.16 9.216 2.16 18Z" fill="white"/>
</svg>
