<svg width="36" height="36" viewBox="0 0 36 36" fill="none" xmlns="http://www.w3.org/2000/svg">
<path fill-rule="evenodd" clip-rule="evenodd" d="M11.0881 10.08H24.9121C25.4881 10.08 25.9201 10.656 25.9201 11.376V12.384L18.0001 17.928L10.0801 12.384V11.376C10.0801 10.656 10.5121 10.08 11.0881 10.08ZM17.1425 20.3184C17.5425 20.5488 17.7425 20.664 18.0001 20.664C18.2881 20.664 18.5041 20.52 19.0081 20.16L25.9201 15.336V24.552C25.9201 25.272 25.4881 25.848 24.9121 25.848H11.0881C10.5121 25.848 10.0801 25.272 10.0801 24.552V15.336L16.9921 20.232C17.0453 20.2624 17.0953 20.2912 17.1425 20.3184Z" fill="white"/>
<path fill-rule="evenodd" clip-rule="evenodd" d="M0 18C0 8.064 8.064 0 18 0C27.936 0 36 8.064 36 18C36 27.936 27.936 36 18 36C8.064 36 0 27.936 0 18ZM2.16 18C2.16 26.784 9.216 33.84 18 33.84C26.784 33.84 33.84 26.784 33.84 18C33.84 9.216 26.784 2.16 18 2.16C9.216 2.16 2.16 9.216 2.16 18Z" fill="white"/>
</svg>
