<svg width="26" height="24" viewBox="0 0 26 24" fill="none" xmlns="http://www.w3.org/2000/svg">
<path fill-rule="evenodd" clip-rule="evenodd" d="M14.0316 0L0 2.4211V21.2239L14.0316 23.9732V0Z" fill="#1975BB"/>
<mask id="mask0_0_761" style="mask-type:luminance" maskUnits="userSpaceOnUse" x="14" y="7" width="10" height="11">
<path fill-rule="evenodd" clip-rule="evenodd" d="M23.9076 7.79871V17.7222H14.9023V7.79871H23.9076V7.79871Z" fill="white"/>
</mask>
<g mask="url(#mask0_0_761)">
<path fill-rule="evenodd" clip-rule="evenodd" d="M14.9023 11.4159V17.7222H22.8374C22.8374 17.7222 23.9987 17.5607 23.9019 16.0374L23.9076 7.79871L18.0958 11.7311C18.0958 11.7311 16.4507 13.0595 14.9023 11.4159Z" fill="#1975BB"/>
</g>
<path fill-rule="evenodd" clip-rule="evenodd" d="M14.9025 4.86604H22.9021C22.9021 4.86604 23.8433 4.80152 23.8432 5.82675L16.6121 10.6435L14.9025 9.55378V4.86604Z" fill="#1975BB"/>
<path fill-rule="evenodd" clip-rule="evenodd" d="M7.01257 14.2927C6.16425 14.2927 5.47651 13.1647 5.47651 11.7732C5.47651 10.3817 6.16425 9.2537 7.01257 9.2537C7.86083 9.2537 8.54864 10.3817 8.54864 11.7732C8.54864 13.1647 7.86083 14.2927 7.01257 14.2927ZM7.05006 7.52783C5.2856 7.52783 3.85535 9.43157 3.85535 11.7801C3.85535 14.1286 5.2856 16.0323 7.05006 16.0323C8.81438 16.0323 10.2447 14.1286 10.2447 11.7801C10.2447 9.43157 8.81438 7.52783 7.05006 7.52783Z" fill="#FEFEFE"/>
</svg>
