<svg width="24" height="24" viewBox="0 0 24 24" fill="none" xmlns="http://www.w3.org/2000/svg">
<path d="M15.5826 18.8475V22.3675C15.5826 23.258 14.8406 24 13.9501 24H1.63246C0.742029 24 0 23.258 0 22.3675V1.63246C0 0.742029 0.742029 0 1.63246 0H9.79478V4.89739C9.79478 5.78783 10.5368 6.52986 11.4272 6.52986H15.5826V8.16232H8.16232C6.82667 8.16232 5.71362 9.27536 5.71362 10.611V16.3246C5.71362 17.6603 6.82667 18.7733 8.16232 18.7733H15.5826V18.8475Z" fill="white"/>
<path d="M10.6108 0V4.89739C10.6108 5.34261 10.9819 5.71362 11.4271 5.71362H15.5824L10.6108 0Z" fill="white"/>
<path d="M10.611 11.4272H8.97852V13.0597H10.611C11.0562 13.0597 11.4272 12.6887 11.4272 12.2435C11.4272 11.7983 11.1304 11.4272 10.611 11.4272Z" fill="white"/>
<path d="M15.5827 11.4272H13.9502V15.5826H15.5827C16.0279 15.5826 16.3989 15.2116 16.3989 14.7664V12.3177C16.3989 11.7983 16.0279 11.4272 15.5827 11.4272Z" fill="white"/>
<path fill-rule="evenodd" clip-rule="evenodd" d="M8.16225 8.97852H22.3675C23.2579 8.97852 23.9999 9.72054 23.9999 10.611V16.3246C23.9999 17.215 23.2579 17.9571 22.3675 17.9571H8.16225C7.27181 17.9571 6.52979 17.215 6.52979 16.3246V10.611C6.52979 9.72054 7.27181 8.97852 8.16225 8.97852ZM8.97848 13.9501H10.6109C11.5756 13.9501 12.3176 13.2081 12.2434 12.3176C12.2434 11.4272 11.5014 10.6852 10.6109 10.6852H8.16225V12.3176V16.3988H8.97848V13.9501ZM17.215 14.7663C17.215 15.6568 16.473 16.3988 15.5825 16.3988H13.1338V10.6852H15.5825C16.473 10.6852 17.215 11.4272 17.215 12.3176V14.7663ZM18.8475 11.4272H22.1124V10.611H18.0312V16.3246H18.8475V13.8759H21.2962V13.0597H18.8475V11.4272Z" fill="white"/>
<path d="M15.5826 18.8475V22.3675C15.5826 23.258 14.8406 24 13.9501 24H1.63246C0.742029 24 0 23.258 0 22.3675V1.63246C0 0.742029 0.742029 0 1.63246 0H9.79478V4.89739C9.79478 5.78783 10.5368 6.52986 11.4272 6.52986H15.5826V8.16232H8.16232C6.82667 8.16232 5.71362 9.27536 5.71362 10.611V16.3246C5.71362 17.6603 6.82667 18.7733 8.16232 18.7733H15.5826V18.8475Z" fill="white"/>
<path d="M10.6108 0V4.89739C10.6108 5.34261 10.9819 5.71362 11.4271 5.71362H15.5824L10.6108 0Z" fill="white"/>
<path d="M10.611 11.4272H8.97852V13.0597H10.611C11.0562 13.0597 11.4272 12.6887 11.4272 12.2435C11.4272 11.7983 11.1304 11.4272 10.611 11.4272Z" fill="white"/>
<path d="M15.5827 11.4272H13.9502V15.5826H15.5827C16.0279 15.5826 16.3989 15.2116 16.3989 14.7664V12.3177C16.3989 11.7983 16.0279 11.4272 15.5827 11.4272Z" fill="white"/>
<path fill-rule="evenodd" clip-rule="evenodd" d="M8.16225 8.97852H22.3675C23.2579 8.97852 23.9999 9.72054 23.9999 10.611V16.3246C23.9999 17.215 23.2579 17.9571 22.3675 17.9571H8.16225C7.27181 17.9571 6.52979 17.215 6.52979 16.3246V10.611C6.52979 9.72054 7.27181 8.97852 8.16225 8.97852ZM8.97848 13.9501H10.6109C11.5756 13.9501 12.3176 13.2081 12.2434 12.3176C12.2434 11.4272 11.5014 10.6852 10.6109 10.6852H8.16225V12.3176V16.3988H8.97848V13.9501ZM17.215 14.7663C17.215 15.6568 16.473 16.3988 15.5825 16.3988H13.1338V10.6852H15.5825C16.473 10.6852 17.215 11.4272 17.215 12.3176V14.7663ZM18.8475 11.4272H22.1124V10.611H18.0312V16.3246H18.8475V13.8759H21.2962V13.0597H18.8475V11.4272Z" fill="white"/>
</svg>
