<svg width="36" height="36" viewBox="0 0 36 36" fill="none" xmlns="http://www.w3.org/2000/svg">
<path fill-rule="evenodd" clip-rule="evenodd" d="M0 18C0 8.064 8.064 0 18 0C27.936 0 36 8.064 36 18C36 27.936 27.936 36 18 36C8.064 36 0 27.936 0 18ZM2.16 18C2.16 26.784 9.216 33.84 18 33.84C26.784 33.84 33.84 26.784 33.84 18C33.84 9.216 26.784 2.16 18 2.16C9.216 2.16 2.16 9.216 2.16 18Z" fill="white"/>
<path fill-rule="evenodd" clip-rule="evenodd" d="M12.744 10.08H23.256H23.328V13.608H12.744V10.08ZM24.192 14.472H11.808C10.296 14.472 9.14404 15.624 9.14404 17.136V22.392H12.672V25.92H23.256V22.392H26.784V17.136C26.784 15.624 25.632 14.472 24.192 14.472ZM21.528 24.192H14.472V19.8H21.528V24.192Z" fill="white"/>
</svg>
