<svg width="24" height="24" viewBox="0 0 24 24" fill="none" xmlns="http://www.w3.org/2000/svg">
<rect width="24" height="24" fill="white"/>
<path fill-rule="evenodd" clip-rule="evenodd" d="M0 24V0H24V24H0ZM3.161 17.5C3.161 18.881 4.28 20 5.661 20C7.041 20 8.161 18.881 8.161 17.5C8.161 16.119 7.041 15 5.661 15C4.28 15 3.161 16.119 3.161 17.5ZM12.161 20C12.161 15.029 9 11 4 11V9C10 9 14.16 13.925 14.16 20H12.161ZM4 6C11 6 17.16 12.266 17.16 20H19.16C19.16 11.161 12 4 4 4V6Z" fill="#F39332"/>
</svg>
