<svg width="36" height="36" viewBox="0 0 36 36" fill="none" xmlns="http://www.w3.org/2000/svg">
<path d="M17.712 14.328L17.784 15.048L17.136 14.976C14.76 14.688 12.6 13.536 10.8 11.736L9.93604 10.8L9.72004 11.448C9.21604 12.96 9.57604 14.544 10.512 15.552C11.016 16.128 10.944 16.2 10.008 15.84C9.72004 15.696 9.43204 15.624 9.36004 15.696C9.28804 15.768 9.57604 17.064 9.86404 17.568C10.224 18.288 10.944 18.936 11.664 19.368L12.312 19.656H11.52C10.8 19.656 10.728 19.656 10.8 19.944C11.088 20.88 12.096 21.816 13.248 22.248L14.04 22.536L13.32 22.968C12.24 23.616 11.016 23.976 9.79204 23.976C9.21604 23.976 8.71204 24.048 8.71204 24.12C8.71204 24.264 10.296 25.056 11.304 25.344C14.112 26.28 17.496 25.848 20.016 24.336C21.816 23.256 23.616 21.024 24.408 18.936C24.84 17.784 25.344 15.768 25.344 14.76C25.344 14.112 25.416 14.04 26.136 13.248C26.568 12.816 27 12.312 27.072 12.168C27.216 11.88 27.216 11.88 26.496 12.168C25.344 12.6 25.2 12.528 25.776 11.88C26.208 11.448 26.712 10.656 26.712 10.368C26.712 10.296 26.496 10.368 26.28 10.512C26.064 10.656 25.488 10.872 25.128 11.016L24.408 11.232L23.76 10.8C23.4 10.584 22.896 10.296 22.608 10.152C21.96 9.93603 20.88 10.008 20.304 10.224C18.648 10.872 17.64 12.528 17.712 14.328C17.712 14.328 17.64 12.528 17.712 14.328Z" fill="white"/>
<path fill-rule="evenodd" clip-rule="evenodd" d="M0 18C0 8.064 8.064 0 18 0C27.936 0 36 8.064 36 18C36 27.936 27.936 36 18 36C8.064 36 0 27.936 0 18ZM2.16 18C2.16 26.784 9.216 33.84 18 33.84C26.784 33.84 33.84 26.784 33.84 18C33.84 9.216 26.784 2.16 18 2.16C9.216 2.16 2.16 9.216 2.16 18Z" fill="white"/>
</svg>
