<svg width="24" height="24" viewBox="0 0 24 24" fill="none" xmlns="http://www.w3.org/2000/svg">
<path fill-rule="evenodd" clip-rule="evenodd" d="M11.0933 0V5.331C11.0933 5.823 11.4782 6.222 11.9381 6.222H16.213L11.0933 0ZM16.213 20.445V22.224C16.213 23.208 15.4498 24 14.509 24H1.70447C0.759832 24 -0.000488281 23.201 -0.000488281 22.215V1.784C-0.000488281 0.798 0.767512 0 1.71311 0H10.2398V5.335C10.2398 6.323 11.0059 7.111 11.9515 7.111H16.213V8.889H5.12591C3.70895 8.889 2.55983 10.082 2.55983 11.555V17.779C2.55983 19.251 3.69935 20.445 5.12591 20.445H16.213Z" fill="white"/>
<path fill-rule="evenodd" clip-rule="evenodd" d="M17.9297 14.2223H18.7755C19.724 14.2223 20.4814 15.0183 20.4814 16.0003C20.4814 16.9893 19.7153 17.7783 18.7707 17.7783H17.9259C16.9784 17.7783 16.2152 16.9813 16.2152 15.9993V15.9943H17.0686V16.0043C17.0686 16.4833 17.4497 16.8893 17.9201 16.8893H18.7765C19.2507 16.8893 19.6289 16.4913 19.6289 16.0003C19.6289 15.5063 19.2421 15.1113 18.7669 15.1113H17.9211C16.9726 15.1113 16.2152 14.3153 16.2152 13.3333C16.2152 12.3453 16.9813 11.5553 17.9259 11.5553H18.7707C19.7182 11.5553 20.4814 12.3513 20.4814 13.3333H19.6289C19.6289 12.8473 19.2469 12.4443 18.7765 12.4443H17.9201C17.4459 12.4443 17.0686 12.8423 17.0686 13.3333C17.0686 13.8273 17.4536 14.2223 17.9297 14.2223ZM15.3617 17.7783H11.0945V11.5553H11.9489V16.8893H15.3617V17.7783ZM10.2421 17.7783H9.38861L8.10893 15.4443L6.82829 17.7783H5.97485L7.68173 14.6663L5.97485 11.5553H6.82829L8.10893 13.8893L9.38861 11.5553H10.2421L8.53517 14.6663L10.2421 17.7783ZM21.3301 9.77832H5.12621C4.18061 9.77832 3.41357 10.5783 3.41357 11.5483V17.7853C3.41357 18.7633 4.17965 19.5553 5.12621 19.5553H21.3301C22.2757 19.5553 23.0427 18.7553 23.0427 17.7853V11.5483C23.0427 10.5713 22.2766 9.77832 21.3301 9.77832Z" fill="white"/>
</svg>
